PathFileType	4	(X/Y/Z)	/Users/itak/Documents/Research/Walk-IL/dataset/trc/00456_00167.trc
DataRate	CameraRate	NumFrames	NumMarkers	Units	OrigDataRate	OrigDataStartFrame	OrigNumFrames
100.000000	100.000000	4	53	mm	100.000000	192	512
Frame#	Time	RPSI			LPSI			L3			STRN			T10			C7			CLAV			RBAK			LBAK			LSHO			LUPA			LAEL			LAOL			LWTS			LWPS			LFRA			LHPS			LHTS			RSHO			RUPA			RAEL			RAOL			RWTS			RWPS			RFRA			RIFD			RHTS			RHPS			RBHD			LFHD			RFHD			LBHD			LHIP			RHIP			RASI			LASI			LKNE			LTHI			LANK			LTIP			LTOE			LMT1			LMT5			LHEE			RKNE			RTHI			RANK			RTIP			RTOE			RMT1			RMT5			RHEE			LIFD			
		X1	Y1	Z1	X2	Y2	Z2	X3	Y3	Z3	X4	Y4	Z4	X5	Y5	Z5	X6	Y6	Z6	X7	Y7	Z7	X8	Y8	Z8	X9	Y9	Z9	X10	Y10	Z10	X11	Y11	Z11	X12	Y12	Z12	X13	Y13	Z13	X14	Y14	Z14	X15	Y15	Z15	X16	Y16	Z16	X17	Y17	Z17	X18	Y18	Z18	X19	Y19	Z19	X20	Y20	Z20	X21	Y21	Z21	X22	Y22	Z22	X23	Y23	Z23	X24	Y24	Z24	X25	Y25	Z25	X26	Y26	Z26	X27	Y27	Z27	X28	Y28	Z28	X29	Y29	Z29	X30	Y30	Z30	X31	Y31	Z31	X32	Y32	Z32	X33	Y33	Z33	X34	Y34	Z34	X35	Y35	Z35	X36	Y36	Z36	X37	Y37	Z37	X38	Y38	Z38	X39	Y39	Z39	X40	Y40	Z40	X41	Y41	Z41	X42	Y42	Z42	X43	Y43	Z43	X44	Y44	Z44	X45	Y45	Z45	X46	Y46	Z46	X47	Y47	Z47	X48	Y48	Z48	X49	Y49	Z49	X50	Y50	Z50	X51	Y51	Z51	X52	Y52	Z52	X53	Y53	Z53	

193	1.92	-487.42333984375	947.9815063476562	-674.9783935546875	-473.1983337402344	934.2442626953125	-816.8499145507812	-469.2786254882812	1040.842651367188	-727.3280639648438	-201.0003509521484	1241.924438476562	-717.5636596679688	-486.9422302246094	1165.684692382812	-732.64599609375	-422.3406982421875	1434.781372070312	-717.88623046875	-238.2053527832031	1354.468994140625	-722.5026245117188	-489.7763977050781	1313.614013671875	-627.9411010742188	-451.6556396484375	1386.868408203125	-817.3056640625	-347.2438659667969	1412.639526367188	-892.5293579101562	-347.8912963867188	1300.45751953125	-995.0922241210938	-314.0907287597656	1094.571044921875	-1050.578491210938	-391.5953063964844	1065.09130859375	-988.3585815429688	-206.8284912109375	903.4312744140625	-1023.6416015625	-251.0309448242188	887.753662109375	-1081.208618164062	-281.5799560546875	1011.602478027344	-1067.37255859375	-229.8959655761719	813.6454467773438	-1092.280151367188	-175.0495300292969	824.6314086914062	-1046.190795898438	-367.209716796875	1407.733520507812	-555.5435180664062	-391.1617431640625	1349.00830078125	-480.50537109375	-370.5403137207031	1069.749633789062	-403.9042358398438	-416.7794189453125	1037.1328125	-441.8752746582031	-197.6853637695312	928.5863037109375	-462.5823364257812	-246.2569580078125	884.4552612304688	-403.6275939941406	-343.6376342773438	1016.529479980469	-396.58056640625	-123.6483688354492	791.2974853515625	-459.6768493652344	-137.6349029541016	850.0512084960938	-452.5232849121094	-191.3595428466797	815.5803833007812	-409.2581787109375	-341.9599609375	1627.631469726562	-619.0584106445312	-166.9504699707031	1633.881591796875	-728.7219848632812	-204.8835296630859	1625.201171875	-604.14208984375	-305.1513671875	1646.1689453125	-792.1251831054688	-310.6376342773438	846.3353881835938	-919.9927368164062	-381.3448181152344	847.4371948242188	-521.9356079101562	-272.9096374511719	890.5540771484375	-575.31005859375	-237.4333038330078	892.484375	-826.4862060546875	-123.7930145263672	472.0929260253906	-901.0355834960938	-162.3060607910156	619.7171020507812	-916.9632568359375	-133.0249938964844	49.6556282043457	-972.7765502929688	-107.1730651855469	325.6557922363281	-936.8799438476562	65.01168060302734	89.6390380859375	-842.3353881835938	-14.98601055145264	79.62042999267578	-833.4391479492188	13.81017780303955	73.609375	-939.9423828125	-191.7953796386719	43.93322372436523	-921.3359375	-368.62060546875	453.6985168457031	-600.2026977539062	-336.9313049316406	709.6024780273438	-534.1282958984375	-475.9354553222656	40.90129852294922	-640.3460693359375	-383.6971740722656	308.6553039550781	-613.193359375	-277.0109558105469	45.62020492553711	-738.5330200195312	-346.7044067382812	52.97907257080078	-755.0786743164062	-339.4384460449219	44.62521743774414	-645.9312133789062	-551.2890625	37.48956298828125	-671.7920532226562	-173.3759613037109	740.0858764648438	-1053.093505859375	
194	1.93	-480.6849060058594	947.0560913085938	-677.966064453125	-464.5502624511719	933.5062255859375	-819.6203002929688	-462.3805541992188	1039.892700195312	-729.7590942382812	-194.4917449951172	1241.435180664062	-717.2234497070312	-480.3519592285156	1164.708129882812	-734.9910278320312	-416.0843811035156	1433.866821289062	-719.4834594726562	-231.906982421875	1353.900390625	-722.5819702148438	-484.1867065429688	1312.64794921875	-630.181884765625	-444.5326843261719	1385.91064453125	-819.10400390625	-339.5881958007812	1411.810424804688	-893.5599365234375	-339.6836853027344	1299.515991210938	-996.0165405273438	-305.724365234375	1093.390747070312	-1050.877807617188	-383.6134948730469	1064.180419921875	-989.0304565429688	-198.8753051757812	902.1610717773438	-1022.760437011719	-242.7028045654297	886.3633422851562	-1080.510131835938	-273.2327575683594	1010.318420410156	-1067.267822265625	-221.6164245605469	812.136962890625	-1091.138427734375	-167.1512298583984	823.1741333007812	-1044.786499023438	-362.3753051757812	1406.81884765625	-556.6565551757812	-386.882080078125	1348.051879882812	-481.864501953125	-367.3012390136719	1068.51806640625	-405.2477722167969	-413.2310791015625	1036.534912109375	-444.0679931640625	-196.2627716064453	923.952392578125	-461.1025695800781	-246.5193634033203	880.9984130859375	-402.7322998046875	-341.4566040039062	1014.880065917969	-397.4269104003906	-125.1234664916992	785.254638671875	-456.9290161132812	-137.9604187011719	844.2924194335938	-450.092041015625	-192.9345550537109	811.0225830078125	-407.4828186035156	-336.4656982421875	1626.877075195312	-620.0512084960938	-160.9528503417969	1633.348266601562	-728.8659057617188	-199.4656524658203	1624.68359375	-604.4832763671875	-298.8770751953125	1645.3818359375	-792.9759521484375	-300.5524597167969	845.8933715820312	-920.5340576171875	-376.7612915039062	846.7509765625	-523.3623657226562	-267.5774536132812	889.750244140625	-575.5096435546875	-228.5779266357422	892.1774291992188	-826.1925048828125	-114.7459564208984	471.3706665039062	-899.0457763671875	-153.3811492919922	618.4868774414062	-915.4169311523438	-109.6613082885742	49.48368072509766	-971.3548583984375	-92.65316772460938	326.0816040039062	-933.999267578125	81.64858245849609	93.98056030273438	-832.1412963867188	1.422574758529663	82.15159606933594	-826.8499755859375	35.0870361328125	76.93152618408203	-932.015625	-170.5445861816406	42.19520568847656	-922.6240844726562	-364.8138427734375	453.1017150878906	-601.0281982421875	-332.5704040527344	708.8480834960938	-534.9815063476562	-476.0032958984375	41.13919067382812	-640.6519775390625	-381.2041320800781	308.0465393066406	-613.8281860351562	-276.8431701660156	45.46809387207031	-738.5917358398438	-346.5061950683594	53.04495239257812	-755.0886840820312	-339.4745788574219	44.58225631713867	-645.8755493164062	-551.30322265625	38.03892517089844	-672.3141479492188	-165.5662994384766	738.5833129882812	-1051.326538085938	
195	1.94	-473.8745422363281	946.0755004882812	-681.0479736328125	-455.7845764160156	932.747314453125	-822.4717407226562	-455.3861694335938	1038.894287109375	-732.2702026367188	-187.9174652099609	1240.904907226562	-716.8709716796875	-473.7161865234375	1163.671630859375	-737.4241943359375	-409.7796936035156	1432.906982421875	-721.1322631835938	-225.5612030029297	1353.275024414062	-722.6682739257812	-478.5743408203125	1311.621337890625	-632.5223999023438	-437.3155517578125	1384.897216796875	-820.9628295898438	-331.8290100097656	1410.925659179688	-894.634033203125	-331.4363098144531	1298.463012695312	-996.9493408203125	-297.4121398925781	1092.082397460938	-1051.1240234375	-375.66357421875	1063.195190429688	-989.589599609375	-191.0025024414062	900.77197265625	-1021.797790527344	-234.5309753417969	884.81689453125	-1079.694580078125	-264.9790344238281	1008.889038085938	-1067.081665039062	-213.5276184082031	810.481689453125	-1089.871337890625	-159.3531341552734	821.6041870117188	-1043.3076171875	-357.5498352050781	1405.849853515625	-557.83251953125	-382.6458435058594	1347.012573242188	-483.296875	-364.12353515625	1067.200317382812	-406.7582702636719	-409.7188110351562	1035.885375976562	-446.4833984375	-195.1884155273438	918.9869384765625	-459.546875	-247.2625579833984	877.3402099609375	-401.8375854492188	-339.4507446289062	1013.129150390625	-398.4107055664062	-127.2209854125977	778.8065795898438	-453.9559020996094	-138.8318939208984	838.1299438476562	-447.4855346679688	-195.143310546875	806.2117919921875	-405.6119995117188	-330.9747924804688	1626.06103515625	-621.0662231445312	-154.922607421875	1632.791625976562	-728.9734497070312	-194.0611572265625	1624.1181640625	-604.7908935546875	-292.5452575683594	1644.559326171875	-793.8309936523438	-290.3560180664062	845.3986206054688	-921.059814453125	-372.1394348144531	846.0164184570312	-524.87548828125	-262.2131958007812	888.90234375	-575.7223510742188	-219.67431640625	891.81396484375	-825.8635864257812	-105.8280487060547	470.5928955078125	-897.1572265625	-144.487060546875	617.193115234375	-913.8002319335938	-88.04346466064453	49.50135803222656	-969.4083862304688	-78.91082000732422	326.4398498535156	-931.063720703125	96.58981323242188	97.91408538818359	-822.3328247070312	16.31979942321777	84.43330383300781	-820.3945922851562	54.44781494140625	80.09878540039062	-924.1185302734375	-150.8034820556641	40.74311828613281	-923.282470703125	-360.8456420898438	452.4669189453125	-601.9036254882812	-328.1074829101562	708.060302734375	-535.8956298828125	-476.0800476074219	41.40016937255859	-641.017333984375	-378.5879516601562	307.4199829101562	-614.5169067382812	-276.66064453125	45.31889343261719	-738.6407470703125	-346.2811584472656	53.10945129394531	-755.1236572265625	-339.548828125	44.56362533569336	-645.8602294921875	-551.3165893554688	38.63018798828125	-672.9061889648438	-157.9090270996094	736.9519653320312	-1049.465209960938	
196	1.95	-466.9856872558594	945.0418701171875	-684.2183837890625	-446.9178771972656	931.96435546875	-825.393310546875	-448.2919006347656	1037.8427734375	-734.856689453125	-181.2788238525391	1240.33642578125	-716.5103149414062	-467.00830078125	1162.573852539062	-739.9437866210938	-403.4246520996094	1431.90576171875	-722.8363037109375	-219.1635589599609	1352.589233398438	-722.7623291015625	-472.9353332519531	1310.537109375	-634.9628295898438	-430.0027160644531	1383.83154296875	-822.8833618164062	-323.966796875	1409.987548828125	-895.75048828125	-323.1325073242188	1297.305908203125	-997.8916015625	-289.1271362304688	1090.655151367188	-1051.316772460938	-367.7316589355469	1062.14453125	-990.0546875	-183.2108612060547	899.2543334960938	-1020.741577148438	-226.4926452636719	883.126953125	-1078.768676757812	-256.7898254394531	1007.32421875	-1066.812866210938	-205.6136016845703	808.6917724609375	-1088.500854492188	-151.6682434082031	819.9016723632812	-1041.744140625	-352.7222900390625	1404.828857421875	-559.0738525390625	-378.442626953125	1345.890625	-484.8020324707031	-361.0228271484375	1065.808715820312	-408.4355773925781	-406.275634765625	1035.185913085938	-449.0781860351562	-194.4791259765625	913.7406005859375	-457.9261779785156	-248.4843444824219	873.5348510742188	-400.9689025878906	-337.6244201660156	1011.295532226562	-399.5353393554688	-129.9482574462891	772.0396728515625	-450.7747497558594	-140.2673797607422	831.64208984375	-444.7196655273438	-197.9845733642578	801.2169189453125	-403.6689147949219	-325.4949035644531	1625.192260742188	-622.1070556640625	-148.8586578369141	1632.216186523438	-729.0477294921875	-188.6757965087891	1623.511962890625	-605.06640625	-286.1534423828125	1643.701782226562	-794.6900024414062	-280.0499877929688	844.8650512695312	-921.5894165039062	-367.4658203125	845.239013671875	-526.4775390625	-256.8088684082031	888.0131225585938	-575.952880859375	-210.7438201904297	891.38623046875	-825.5066528320312	-97.00483703613281	469.7641906738281	-895.3536376953125	-135.5929107666016	615.8651733398438	-912.1235961914062	-68.27975463867188	49.55211639404297	-967.0296630859375	-65.95618438720703	326.6614685058594	-928.1158447265625	109.8438110351562	101.2595520019531	-812.9633178710938	29.67703437805176	86.33995056152344	-814.1261596679688	71.87870025634766	82.88364410400391	-916.33154296875	-132.6995849609375	39.50714111328125	-923.3746948242188	-356.726806640625	451.7988586425781	-602.8214111328125	-323.5412902832031	707.2424926757812	-536.8709716796875	-476.1668395996094	41.68523025512695	-641.4453125	-375.8595886230469	306.7812805175781	-615.248291015625	-276.4635314941406	45.17667388916016	-738.6744995117188	-346.0315856933594	53.16612243652344	-755.1849365234375	-339.6640319824219	44.56855392456055	-645.881103515625	-551.3272094726562	39.2670783996582	-673.5844116210938	-150.4071197509766	735.192138671875	-1047.521118164062	
